<?xml version="1.0" encoding="utf-8"?>
<!-- Generator: Adobe Illustrator 24.2.1, SVG Export Plug-In . SVG Version: 6.00 Build 0)  -->
<svg version="1.1" id="Capa_1" xmlns="http://www.w3.org/2000/svg" xmlns:xlink="http://www.w3.org/1999/xlink" x="0px" y="0px"
	 viewBox="0 0 128 128" style="enable-background:new 0 0 128 128;" xml:space="preserve">
<style type="text/css">
	.st0{fill:none;}
	.st1{fill:#ECC94B;}
	.st2{fill:#FFFFFF;}
	.st3{opacity:0.5;}
	.st4{fill:#DEE4F5;}
	.st5{opacity:0.5;fill:#DEE4F5;}
	.st6{fill:#CEE6AC;stroke:#CEE6AC;}
	.st7{fill:#CEE6AC;}
	.st8{fill:#8DC63F;stroke:#8DC63F;stroke-width:3;stroke-linecap:round;stroke-linejoin:round;}
	.st9{fill:none;stroke:#FFFFFF;stroke-width:3;stroke-linecap:round;stroke-linejoin:round;}
	.st10{opacity:0.98;}
	.st11{opacity:0.98;fill:#FFFFF0;enable-background:new    ;}
	.st12{opacity:0.98;fill:#F0F7E6;}
	.st13{fill:#ECC94B;stroke:#ECC94B;}
	.st14{fill:#AFD772;stroke:#8DC63F;}
	.st15{fill:#ECC94B;stroke:#ECC94B;stroke-width:3;stroke-linecap:round;stroke-linejoin:round;}
</style>
<rect id="backgroundrect" class="st0" width="128" height="128"/>
<g>
	<path id="svg_1" class="st0" d="M0,0"/>
	<path id="svg_15" class="st1" d="M69.8,124.4c-0.2,0-0.4,0-0.6-0.1c-0.2-0.1-0.4-0.2-0.5-0.3c-0.3-0.3-0.4-0.7-0.4-1.1
		c0-0.4,0.2-0.8,0.4-1.1c0.4-0.4,0.9-0.5,1.3-0.4c0.1,0,0.2,0,0.3,0.1c0.1,0,0.2,0.1,0.3,0.1c0.1,0.1,0.2,0.1,0.2,0.2
		c0.1,0.1,0.1,0.1,0.2,0.2c0.1,0.1,0.1,0.2,0.1,0.3c0.2,0.6,0.1,1.2-0.3,1.6c-0.1,0.1-0.3,0.3-0.5,0.3
		C70.2,124.4,70,124.4,69.8,124.4z M60.1,122.9c0-0.8,0.7-1.5,1.5-1.5l0,0c0.8,0,1.5,0.7,1.5,1.5l0,0c0,0.8-0.7,1.5-1.5,1.5
		C60.8,124.4,60.1,123.8,60.1,122.9z M51.9,122.9c0-0.8,0.7-1.5,1.5-1.5l0,0c0.8,0,1.5,0.7,1.5,1.5l0,0c0,0.8-0.7,1.5-1.5,1.5
		S51.9,123.8,51.9,122.9z M43.7,122.9c0-0.8,0.7-1.5,1.5-1.5l0,0c0.8,0,1.5,0.7,1.5,1.5c0,0.8-0.7,1.5-1.5,1.5
		C44.3,124.4,43.7,123.8,43.7,122.9z M35.4,122.9c0-0.8,0.7-1.5,1.5-1.5l0,0c0.8,0,1.5,0.7,1.5,1.5l0,0c0,0.8-0.7,1.5-1.5,1.5
		S35.4,123.8,35.4,122.9z M27.2,122.9c0-0.8,0.7-1.5,1.5-1.5l0,0c0.8,0,1.5,0.7,1.5,1.5c0,0.8-0.7,1.5-1.5,1.5
		C27.9,124.4,27.2,123.8,27.2,122.9z M19,122.9c0-0.8,0.7-1.5,1.5-1.5l0,0c0.8,0,1.5,0.7,1.5,1.5l0,0c0,0.8-0.7,1.5-1.5,1.5
		C19.7,124.4,19,123.8,19,122.9C19,122.9,19,122.9,19,122.9L19,122.9z M10.8,122.9c0-0.8,0.7-1.5,1.5-1.5l0,0c0.8,0,1.5,0.7,1.5,1.5
		c0,0.8-0.7,1.5-1.5,1.5C11.5,124.4,10.8,123.8,10.8,122.9z M4.1,124.4c-0.4,0-0.8-0.1-1.1-0.4c-0.3-0.3-0.4-0.7-0.4-1.1
		c0-0.1,0-0.2,0-0.3c0-0.1,0-0.2,0.1-0.3c0-0.1,0.1-0.2,0.1-0.3c0.1-0.1,0.1-0.2,0.2-0.2c0.1-0.1,0.1-0.1,0.2-0.2
		c0.1-0.1,0.2-0.1,0.3-0.1c0.1,0,0.2-0.1,0.3-0.1c0.2,0,0.4,0,0.6,0c0.1,0,0.2,0,0.3,0.1c0.1,0,0.2,0.1,0.3,0.1
		c0.1,0.1,0.2,0.1,0.2,0.2c0.1,0.1,0.1,0.1,0.2,0.2c0.1,0.1,0.1,0.2,0.1,0.3c0.1,0.2,0.1,0.4,0.1,0.6c0,0.2,0,0.4-0.1,0.6
		c-0.1,0.2-0.2,0.3-0.3,0.5C4.8,124.3,4.5,124.4,4.1,124.4z M2.6,114.9c0-0.8,0.7-1.5,1.5-1.5s1.5,0.7,1.5,1.5s-0.7,1.5-1.5,1.5
		S2.6,115.8,2.6,114.9z M2.6,106.9c0-0.8,0.7-1.5,1.5-1.5s1.5,0.7,1.5,1.5s-0.7,1.5-1.5,1.5S2.6,107.8,2.6,106.9z M2.6,98.9
		c0-0.8,0.7-1.5,1.5-1.5s1.5,0.7,1.5,1.5s-0.7,1.5-1.5,1.5C3.3,100.4,2.6,99.8,2.6,98.9L2.6,98.9z M2.6,90.9c0-0.8,0.7-1.5,1.5-1.5
		s1.5,0.7,1.5,1.5s-0.7,1.5-1.5,1.5C3.3,92.4,2.6,91.8,2.6,90.9L2.6,90.9z M2.6,82.9c0-0.8,0.7-1.5,1.5-1.5c0.8,0,1.5,0.7,1.5,1.5
		c0,0,0,0,0,0.1c0,0.8-0.7,1.5-1.5,1.5S2.6,83.8,2.6,82.9L2.6,82.9z M2.6,74.9c0-0.8,0.7-1.5,1.5-1.5c0.8,0,1.5,0.7,1.5,1.5
		c0,0,0,0,0,0.1c0,0.8-0.7,1.5-1.5,1.5S2.6,75.8,2.6,74.9L2.6,74.9z M2.6,66.9c0-0.8,0.7-1.5,1.5-1.5c0.8,0,1.5,0.7,1.5,1.5
		c0,0,0,0,0,0.1c0,0.8-0.7,1.5-1.5,1.5C3.3,68.5,2.6,67.8,2.6,66.9L2.6,66.9z M2.6,58.9c0-0.8,0.7-1.5,1.5-1.5l0,0
		c0.8,0,1.5,0.7,1.5,1.5c0,0,0,0,0,0.1c0,0.8-0.7,1.5-1.5,1.5S2.6,59.8,2.6,58.9L2.6,58.9z M2.6,50.9c0-0.8,0.7-1.5,1.5-1.5
		c0.8,0,1.5,0.7,1.5,1.5c0,0,0,0,0,0.1c0,0.8-0.7,1.5-1.5,1.5S2.6,51.8,2.6,50.9L2.6,50.9z M4.1,44.5c-0.8,0-1.5-0.7-1.5-1.5
		c0-0.1,0-0.2,0-0.3c0-0.1,0-0.2,0.1-0.3c0-0.1,0.1-0.2,0.1-0.3c0.1-0.2,0.3-0.3,0.4-0.4c0.1-0.1,0.2-0.1,0.3-0.1l0.3-0.1
		c0.5-0.1,1,0.1,1.3,0.4c0.1,0.1,0.1,0.1,0.2,0.2c0.1,0.1,0.1,0.2,0.1,0.3c0,0.1,0.1,0.2,0.1,0.3c0,0.1,0,0.2,0,0.3
		c0,0.4-0.1,0.7-0.4,1c-0.1,0.1-0.1,0.1-0.2,0.2c-0.1,0.1-0.2,0.1-0.3,0.1c-0.1,0-0.2,0.1-0.3,0.1C4.3,44.4,4.2,44.5,4.1,44.5z
		 M60.1,43c0-0.8,0.7-1.5,1.5-1.5s1.5,0.7,1.5,1.5s-0.7,1.5-1.5,1.5S60.1,43.8,60.1,43z M51.9,43c0-0.8,0.7-1.5,1.5-1.5
		s1.5,0.7,1.5,1.5s-0.7,1.5-1.5,1.5S51.9,43.8,51.9,43z M43.7,43c0-0.8,0.7-1.5,1.5-1.5c0.8,0,1.5,0.7,1.5,1.5
		c0,0.8-0.7,1.5-1.5,1.5C44.3,44.5,43.7,43.8,43.7,43z M35.4,43c0-0.8,0.7-1.5,1.5-1.5s1.5,0.7,1.5,1.5s-0.7,1.5-1.5,1.5
		S35.4,43.8,35.4,43z M27.2,43c0-0.8,0.7-1.5,1.5-1.5s1.5,0.7,1.5,1.5s-0.7,1.5-1.5,1.5S27.2,43.8,27.2,43z M19,43
		c0-0.8,0.7-1.5,1.5-1.5S22,42.2,22,43s-0.7,1.5-1.5,1.5S19,43.8,19,43z M10.8,43c0-0.8,0.7-1.5,1.5-1.5s1.5,0.7,1.5,1.5
		s-0.7,1.5-1.5,1.5S10.8,43.8,10.8,43z M69.8,44.5c-0.4,0-0.8-0.2-1.1-0.5c-0.3-0.3-0.4-0.6-0.4-1c0-0.8,0.6-1.5,1.5-1.5
		c0.1,0,0.2,0,0.3,0l0.3,0.1l0.3,0.1c0.1,0.1,0.2,0.1,0.2,0.2c0.3,0.3,0.4,0.7,0.4,1.1c0,0.4-0.2,0.7-0.4,1
		c-0.1,0.1-0.1,0.1-0.2,0.2c-0.1,0.1-0.2,0.1-0.3,0.1c-0.1,0-0.2,0.1-0.3,0.1C70,44.4,69.9,44.5,69.8,44.5z M68.3,114.9
		c0-0.8,0.7-1.5,1.5-1.5s1.5,0.7,1.5,1.5s-0.7,1.5-1.5,1.5S68.3,115.8,68.3,114.9z M68.3,106.9c0-0.8,0.7-1.5,1.5-1.5
		s1.5,0.7,1.5,1.5s-0.7,1.5-1.5,1.5S68.3,107.8,68.3,106.9z M68.3,98.9c0-0.8,0.7-1.5,1.5-1.5s1.5,0.7,1.5,1.5s-0.7,1.5-1.5,1.5
		C69,100.4,68.3,99.8,68.3,98.9L68.3,98.9z M68.3,90.9c0-0.8,0.7-1.5,1.5-1.5s1.5,0.7,1.5,1.5s-0.7,1.5-1.5,1.5
		C69,92.4,68.3,91.8,68.3,90.9L68.3,90.9z M68.3,82.9c0-0.8,0.7-1.5,1.5-1.5s1.5,0.7,1.5,1.5s-0.7,1.5-1.5,1.5
		C69,84.4,68.3,83.8,68.3,82.9L68.3,82.9z M68.3,74.9c0-0.8,0.7-1.5,1.5-1.5s1.5,0.7,1.5,1.5s-0.7,1.5-1.5,1.5
		C69,76.4,68.3,75.8,68.3,74.9L68.3,74.9z M68.3,66.9c0-0.8,0.7-1.5,1.5-1.5s1.5,0.7,1.5,1.5c0,0.8-0.7,1.5-1.5,1.5
		C69,68.4,68.4,67.8,68.3,66.9L68.3,66.9z M68.3,58.9c0-0.8,0.7-1.5,1.5-1.5l0,0c0.8,0,1.5,0.7,1.5,1.5l0,0c0,0.8-0.7,1.5-1.5,1.5
		C69,60.4,68.3,59.8,68.3,58.9L68.3,58.9z M68.3,50.9c0-0.8,0.7-1.5,1.5-1.5s1.5,0.7,1.5,1.5s-0.7,1.5-1.5,1.5
		C69,52.4,68.3,51.8,68.3,50.9L68.3,50.9z"/>
	<path id="svg_16" class="st2" d="M26.7,3.6h79.4v96.6H26.7V3.6z"/>
	<path id="svg_17" class="st2" d="M106.9,101H91.8c-1.6,0-3.2,0.2-4.9,0.2s-3.4-0.1-5.1-0.1c-0.8,0-1.7-0.1-2.5,0s-1.7,0-2.5,0
		l-9.9,0.3c-3.3,0.1-6.6,0.2-10,0.3s-6.8-0.3-10.1-0.2c-6.6,0.4-13.4,0.2-20.1,0h-0.1c-0.6,0-1.1-0.5-1.1-1.1c0,0,0,0,0,0
		c0.1-2,0.1-4,0.1-6s0-4,0-6s-0.2-4-0.2-6s0.1-4,0.3-6c0.1-1,0.1-2,0-3c-0.1-1-0.1-2-0.1-3v-6l0.1-12.1v-12l0.3-6c0.1-2,0-4-0.1-6
		c-0.2-4,0.1-8,0.3-12.1l0.1-3v-3l-0.1-6c-0.3-0.2-0.4-0.5-0.3-0.9s0.5-0.4,0.9-0.3c3.3-0.1,6.6,0,9.9,0s6.6,0,9.9,0.1
		c1.7,0,3.3,0.1,5,0.1H54L56.5,3l9.9-0.3C73,2.5,79.6,2.4,86.2,2.4c3.3,0.1,6.6,0.3,9.9,0.2l9.9-0.3c0.6,0,1.1,0.5,1.2,1.1
		c0,0,0,0,0,0v0.1l0.2,6.1c0,2-0.1,4.1-0.2,6.1c0,4.1,0.2,8.2,0.1,12.2c0,2-0.3,4-0.3,6c-0.1,1,0,2,0,3V43l-0.1,3
		c-0.1,2-0.1,4.1,0.1,6.1c0.2,4.2-0.2,8-0.2,12.1c-0.2,4,0.1,8.2,0,12.2c0,2-0.2,4-0.2,6s0.1,4.1,0.1,6.2l0.1,3.1v3.1
		C106.9,97,107,99,106.9,101z M105.2,99.3V87.4c0-2,0.1-3.9,0.1-5.9s-0.2-4.1-0.3-6.2c-0.2-4.1,0.2-7.8,0-11.9
		c-0.1-2-0.2-4.1-0.3-6.1c-0.1-2-0.1-4,0-6c0.2-2,0.3-3.9,0.2-5.9c-0.2-2-0.2-4-0.1-6c0.2-1.9,0.2-3.9,0.2-5.9c0-2-0.3-4-0.3-6
		s0-4,0.1-6s0.2-4,0.1-6s-0.2-4-0.2-6l0.1-6l1.1,1.1c-3.3-0.1-6.6-0.2-9.9-0.2s-6.6,0.3-9.9,0.4C79.6,5.1,73,5,66.4,4.8
		c-1.7,0-3.3-0.1-5-0.2l-5-0.3c-3.3-0.2-6.6,0-9.9,0.1c-6.6,0.2-13.2,0.4-19.9,0.3l1.2-1.2l-0.3,6v3l0.1,3c0.2,4,0.8,8.1,0.4,12.1
		c-0.1,1-0.3,2-0.3,3s0,2,0,3c0.1,2,0.4,4,0.5,6v3l-0.1,3l-0.1,6L28,64l-0.1,6c0,1-0.1,2-0.2,3c-0.1,1-0.1,2-0.1,3
		c0.1,2,0.3,4,0.2,6l-0.3,6c-0.1,4-0.1,8.1-0.1,12.1l-0.7-0.8h9.9c3.3,0,6.6,0.1,9.9,0.1s6.5-0.3,9.8-0.3s6.6,0.1,9.9,0.1l9.9,0.2
		h4.9c1.6,0,3.2-0.1,4.8-0.1s3.3,0.1,5,0.1l4.9-0.1C98.7,99.3,102,99.4,105.2,99.3L105.2,99.3z"/>
	<g id="svg_18" class="st3">
		<path id="svg_19" class="st4" d="M26.7,3.6h79.4v96.6H26.7V3.6z"/>
		<path id="svg_20" class="st5" d="M0,0"/>
	</g>
	<path id="svg_21" class="st6" d="M49.5,16.2H50c5.9,0,10.7,4.8,10.7,10.7v1.9c0,5.9-4.8,10.7-10.7,10.7h-0.5
		c-5.9,0-10.7-4.8-10.7-10.7v-1.9C38.8,21,43.6,16.2,49.5,16.2z"/>
	<path id="svg_22" class="st7" d="M50,40.3c-1.6,0.1-3.2-0.2-4.7-0.8c-0.7-0.3-1.4-0.7-2.2-1.1c-0.3-0.2-0.7-0.4-1-0.6
		s-0.7-0.5-1-0.8c-2.3-2.3-3.5-5.6-3.3-8.9L38,27c0-0.4,0-0.8,0.1-1.2s0.1-0.8,0.2-1.2l0.3-1.2c0.5-1.5,1.4-2.9,2.5-4
		c0.5-0.6,1.1-1.1,1.8-1.6c0.6-0.5,1.3-0.9,2.1-1.2c1.5-0.6,3-0.9,4.6-0.9c1.6,0,3.1,0.2,4.6,0.8c1.5,0.5,2.8,1.4,4,2.4
		c2.3,2.3,3.5,5.4,3.5,8.6c0.2,3.2-0.9,6.4-3,8.8c-0.3,0.3-0.6,0.6-0.9,0.8c-0.3,0.3-0.6,0.5-1,0.7c-0.6,0.5-1.3,0.9-2,1.2
		C53.2,39.9,51.7,40.3,50,40.3z M50,38.7c1.4,0,2.7-0.3,4-0.9c0.6-0.3,1.2-0.6,1.8-1.1c0.3-0.2,0.5-0.4,0.8-0.7
		c0.2-0.2,0.5-0.5,0.7-0.8c0.9-1,1.6-2.2,2.1-3.5l0.3-1l0.2-1l0.1-1v-1.2c0-0.4,0-0.8,0-1.1c0-0.3,0-0.7,0-1c-0.1-0.7-0.2-1.4-0.5-2
		C58.8,22.2,58,21,57,20c-0.5-0.5-1.1-0.9-1.6-1.4c-0.5-0.5-1.1-0.8-1.8-1c-0.3-0.1-0.7-0.2-1-0.3c-0.3-0.1-0.7-0.1-1-0.1
		c-0.7-0.1-1.3,0-2.1,0h-1c-0.3,0-0.7,0.1-1,0.1c-0.7,0.2-1.4,0.4-2,0.7c-0.6,0.3-1.2,0.6-1.8,1c-0.3,0.2-0.6,0.4-0.8,0.6L42.5,20
		l-0.3,0.4c-0.8,1.1-1.5,2.3-2.1,3.5c-0.1,0.3-0.2,0.7-0.3,1c0,0.3-0.1,0.7-0.2,1l-0.2,1l-0.1,1.1c-0.2,2.9,0.9,5.7,3,7.7
		c0.2,0.3,0.5,0.5,0.8,0.7s0.5,0.5,0.8,0.7c0.6,0.4,1.2,0.7,1.9,0.9C47.2,38.6,48.6,38.8,50,38.7z"/>
	<path id="svg_23" class="st2" d="M49.8,27.8h28.7v30.5H49.8V27.8z"/>
	<path id="svg_24" class="st2" d="M79,58.9c-2.4,0-5-0.1-7.3,0.1c-2.4-0.2-4.8-0.1-7.3,0.2c-1.2,0.1-2.4,0.1-3.7,0
		c-1.2-0.1-2.5-0.1-3.7,0c-2.4,0.2-4.9-0.2-7.3-0.2c-0.4,0-0.7-0.3-0.7-0.7c0,0,0,0,0,0v-1.9c0-0.6-0.1-1.3-0.2-1.9
		c-0.2-1.3,0.4-2.5,0.1-3.8c0-2.5,0.1-5.1,0.1-7.6c0-1.3,0-2.5,0.1-3.8c0.1-0.6,0.2-1.3,0.2-1.9c0-0.6-0.1-1.3-0.2-1.9
		c0-1.3,0.2-2.5,0.2-3.8s0-2.5,0-3.8c0-0.2,0.1-0.4,0.3-0.4c1.2-0.1,2.4,0,3.6,0s2.4,0,3.6,0.1c2.4,0.2,4.8-0.2,7.2-0.3
		c1.2-0.1,2.4-0.1,3.6-0.1c1.2-0.1,2.4,0,3.6,0.1c2.4,0.1,4.8,0,7.2-0.2c0.5,0,0.9,0.4,0.9,0.8v0.1c0,0.6,0,1.3-0.1,1.9
		c0,0.6,0,1.3,0,1.9c0.1,1.3,0.1,2.6-0.1,3.9c-0.1,1.3-0.1,2.6-0.1,3.9c-0.1,0.6-0.1,1.3-0.1,1.9c0.1,0.7,0.1,1.3,0.2,2
		c-0.1,1.3-0.2,2.5-0.2,3.8s0.2,2.7,0,3.9c-0.1,1.3-0.1,2.6,0,3.9v2C78.9,57.6,79,58.2,79,58.9z M77.9,57.7V54
		c0.1-1.3,0.1-2.5-0.1-3.8c-0.1-1.2-0.1-2.5,0-3.7c0-1.3-0.2-2.6-0.3-3.8c0-0.6,0.1-1.2,0.2-1.8c0-0.6,0-1.3-0.1-1.9
		c0-0.6,0-1.2,0.1-1.8c0.1-0.6,0.1-1.2,0-1.9c-0.2-1.2-0.2-2.5,0-3.7c0.1-0.6,0.1-1.2,0.1-1.9c0-0.6-0.1-1.3-0.1-1.9l0.8,0.8
		c-2.4,0-4.8-0.4-7.2-0.1c-1.2,0.2-2.4,0.2-3.6,0.2h-1.8l-1.8-0.1c-2.4,0-4.8-0.6-7.2-0.3c-2.4,0.2-4.8,0.3-7.2,0.2l0.8-0.8
		c-0.2,1.3-0.2,2.5-0.2,3.8c0.2,1.3,0.4,2.5,0.4,3.8c-0.2,0.6-0.3,1.3-0.3,1.9c0,0.6,0.1,1.3,0.3,1.9c0.1,1.3,0.1,2.5,0,3.8
		c-0.1,2.5,0,5.1-0.2,7.6c-0.4,1.3,0.1,2.5,0,3.8l-0.2,1.9l0,1.9l-0.5-0.5c2.4,0.1,4.7,0,7.1,0c1.2,0.1,2.3,0,3.5-0.1
		c1.2-0.1,2.3-0.1,3.5,0c2.3,0.2,4.7,0.2,7.1,0.1C73.4,57.9,75.6,57.7,77.9,57.7L77.9,57.7z"/>
	<path id="svg_25" class="st7" d="M83.7,41.2L74,59.3l21.5-0.7L84.3,41.2C84.2,41,84,40.9,83.8,41C83.8,41.1,83.7,41.1,83.7,41.2z"
		/>
	<path id="svg_26" class="st7" d="M84.4,41.4c-0.8,1.5-1.6,3-2.5,4.5l-1,2.4c-0.3,0.8-0.8,1.5-1.2,2.3L77.2,55
		c-0.8,1.5-1.7,3-2.5,4.5l-0.7-1c1.8,0,3.6,0.1,5.4,0s3.6,0,5.4-0.1s3.6,0,5.4-0.1c1.8-0.2,3.6-0.4,5.4-0.4l-0.6,1l-1.5-2.2
		c-0.5-0.7-1-1.5-1.5-2.2c-0.9-1.5-1.8-3.1-2.8-4.5c-0.5-0.8-1-1.5-1.4-2.3s-0.8-1.6-1.4-2.3s-1-1.5-1.5-2.2L84,41.9l-0.3-0.5
		c0.2,0.2,0.4,0.2,0.6,0C84.3,41.5,84.4,41.5,84.4,41.4z M83,40.7c0.2-0.3,0.5-0.6,0.8-0.6c0.4-0.1,0.7,0.1,1,0.4
		c0.1,0.1,0.1,0.2,0.2,0.2l0.1,0.1l0.2,0.3l0.7,1.1l1.5,2.2c0.5,0.8,1.1,1.4,1.6,2.2s0.9,1.5,1.4,2.3c0.9,1.6,1.9,3.1,2.8,4.6
		c0.4,0.8,0.8,1.6,1.3,2.3l1.5,2.2c0.2,0.4,0.2,0.8-0.2,1.1c-0.1,0.1-0.2,0.1-0.4,0.1h-0.1c-1.8,0.2-3.6,0.2-5.4,0.1
		c-1.8,0.1-3.6,0.5-5.4,0.4c-0.9-0.1-1.8-0.1-2.7,0c-0.9,0.1-1.8,0.1-2.7,0.1c-1.8-0.2-3.6,0.4-5.4,0.1h-0.3
		c-0.4-0.1-0.7-0.5-0.7-0.9c0,0,0,0,0,0c0-0.1,0.1-0.2,0.1-0.3l0.8-1.1l0.6-1.1c0.4-0.7,0.9-1.4,1.4-2.2c0.9-1.5,1.6-3,2.3-4.6
		c0.4-0.8,0.7-1.5,1.1-2.3l1.3-2.2C81.4,43.7,82.3,42.2,83,40.7z M97.8,77.4H86c-0.6,0-1-0.4-1-1s0.4-1,1-1h11.8c0.6,0,1,0.4,1,1
		S98.3,77.4,97.8,77.4z M77.6,77.4H35c-0.6,0-1-0.4-1-1s0.4-1,1-1h42.6c0.6,0,1,0.4,1,1S78.2,77.4,77.6,77.4z M98,88H69.3
		c-0.6,0-1-0.4-1-1s0.4-1,1-1H98c0.6,0,1,0.4,1,1S98.6,88,98,88z M60.8,88H35c-0.6,0-1-0.4-1-1s0.4-1,1-1h25.8c0.6,0,1,0.4,1,1
		S61.3,88,60.8,88z"/>
	<circle id="svg_27" class="st8" cx="107.4" cy="106.3" r="18"/>
	<path id="svg_28" class="st9" d="M107.4,96.8V116 M114.6,106.4l-7.2-9.6l-7.2,9.6"/>
	<path id="svg_2" class="st2" d="M26.7,3.6h79.4v96.6H26.7V3.6z"/>
	<path id="svg_3" class="st2" d="M0,0"/>
	<g id="svg_4" class="st10">
		<path id="svg_5" class="st11" d="M26.7,3.6h79.4v96.6H26.7V3.6z"/>
		<path id="svg_6" class="st12" d="M0,0"/>
	</g>
	<path id="svg_7" class="st13" d="M49.5,15.9H50c5.9,0,10.7,4.8,10.7,10.7v1.9c0,5.9-4.8,10.7-10.7,10.7h-0.5
		c-5.9,0-10.7-4.8-10.7-10.7v-1.9C38.8,20.7,43.6,15.9,49.5,15.9z"/>
	<path id="svg_8" class="st14" d="M0,0"/>
	<path id="svg_9" class="st2" d="M49.8,27.8h28.7v30.5H49.8V27.8z"/>
	<path id="svg_10" class="st2" d="M0,0"/>
	<path id="svg_11" class="st2" d="M0,0"/>
	<path id="svg_12" class="st1" d="M84.4,41.4c-0.8,1.5-1.6,3-2.5,4.5l-1,2.4c-0.3,0.8-0.8,1.5-1.2,2.3L77.2,55
		c-0.8,1.5-1.7,3-2.5,4.5l-0.7-1c1.8,0,3.6,0.1,5.4,0s3.6,0,5.4-0.1s3.6,0,5.4-0.1c1.8-0.2,3.6-0.4,5.4-0.4l-0.6,1l-1.5-2.2
		c-0.5-0.7-1-1.5-1.5-2.2c-0.9-1.5-1.8-3.1-2.8-4.5c-0.5-0.8-1-1.5-1.4-2.3s-0.8-1.6-1.4-2.3s-1-1.5-1.5-2.2L84,41.9l-0.3-0.5
		c0.2,0.2,0.4,0.2,0.6,0C84.3,41.5,84.4,41.5,84.4,41.4z M83,40.7c0.2-0.3,0.5-0.6,0.8-0.6c0.4-0.1,0.7,0.1,1,0.4
		c0.1,0.1,0.1,0.2,0.2,0.2l0.1,0.1l0.2,0.3l0.7,1.1l1.5,2.2c0.5,0.8,1.1,1.4,1.6,2.2s0.9,1.5,1.4,2.3c0.9,1.6,1.9,3.1,2.8,4.6
		c0.4,0.8,0.8,1.6,1.3,2.3l1.5,2.2c0.2,0.4,0.2,0.8-0.2,1.1c-0.1,0.1-0.2,0.1-0.4,0.1h-0.1c-1.8,0.2-3.6,0.2-5.4,0.1
		c-1.8,0.1-3.6,0.5-5.4,0.4c-0.9-0.1-1.8-0.1-2.7,0c-0.9,0.1-1.8,0.1-2.7,0.1c-1.8-0.2-3.6,0.4-5.4,0.1h-0.3
		c-0.4-0.1-0.7-0.5-0.7-0.9c0,0,0,0,0,0c0-0.1,0.1-0.2,0.1-0.3l0.8-1.1l0.6-1.1c0.4-0.7,0.9-1.4,1.4-2.2c0.9-1.5,1.6-3,2.3-4.6
		c0.4-0.8,0.7-1.5,1.1-2.3l1.3-2.2C81.4,43.7,82.3,42.2,83,40.7z M97.8,77.4H86c-0.6,0-1-0.4-1-1s0.4-1,1-1h11.8c0.6,0,1,0.4,1,1
		S98.3,77.4,97.8,77.4z M77.6,77.4H35c-0.6,0-1-0.4-1-1s0.4-1,1-1h42.6c0.6,0,1,0.4,1,1S78.2,77.4,77.6,77.4z M98,88H69.3
		c-0.6,0-1-0.4-1-1s0.4-1,1-1H98c0.6,0,1,0.4,1,1S98.6,88,98,88z M60.8,88H35c-0.6,0-1-0.4-1-1s0.4-1,1-1h25.8c0.6,0,1,0.4,1,1
		S61.3,88,60.8,88z"/>
	<circle id="svg_13" class="st15" cx="107.4" cy="106.3" r="18"/>
	<path id="svg_14" class="st9" d="M107.4,96.8V116 M114.6,106.4l-7.2-9.6l-7.2,9.6"/>
</g>
</svg>
